<?xml version="1.0" standalone="no"?>
<!DOCTYPE svg PUBLIC "-//W3C//DTD SVG 20010904//EN"
 "http://www.w3.org/TR/2001/REC-SVG-20010904/DTD/svg10.dtd">
<svg version="1.0" xmlns="http://www.w3.org/2000/svg"
 width="512.000000pt" height="512.000000pt" viewBox="0 0 512.000000 512.000000"
 preserveAspectRatio="xMidYMid meet">

<g transform="translate(0.000000,512.000000) scale(0.100000,-0.100000)"
fill="#000000" stroke="none">
<path d="M1005 5109 c-463 -59 -849 -400 -965 -854 -39 -153 -43 -256 -36
-955 l7 -665 31 -32 c17 -18 35 -30 40 -27 5 3 7 0 6 -8 -2 -7 3 -12 11 -10
12 3 12 0 2 -12 -11 -13 -10 -15 8 -11 12 2 20 -1 18 -8 -1 -7 4 -11 12 -9 12
3 12 0 2 -12 -11 -13 -10 -15 8 -11 12 2 20 -1 18 -8 -1 -7 4 -11 12 -9 12 3
12 0 2 -12 -11 -13 -10 -15 8 -11 12 2 20 -1 18 -8 -1 -7 4 -11 11 -9 6 1 11
-4 10 -10 -2 -7 3 -12 10 -10 6 1 11 -4 10 -10 -2 -7 3 -12 10 -10 6 1 11 -4
10 -10 -2 -7 3 -12 10 -10 6 1 11 -4 10 -10 -2 -7 3 -12 10 -10 6 1 11 -4 10
-10 -2 -7 3 -12 10 -10 6 1 11 -4 10 -10 -2 -7 3 -12 10 -10 6 1 11 -4 10 -10
-2 -7 3 -12 10 -10 6 1 11 -4 10 -10 -2 -7 3 -12 10 -10 6 1 11 -4 10 -10 -2
-7 3 -12 10 -10 6 1 11 -4 10 -10 -2 -7 3 -12 10 -10 6 1 11 -4 10 -10 -2 -7
3 -12 10 -10 6 1 11 -4 10 -10 -2 -7 3 -12 10 -10 6 1 11 -4 10 -10 -2 -7 3
-12 10 -10 6 1 11 -4 10 -10 -2 -7 3 -12 10 -10 6 1 11 -4 10 -10 -2 -7 3 -12
10 -10 6 1 11 -4 10 -10 -2 -7 3 -12 10 -10 6 1 11 -4 10 -10 -2 -7 3 -12 10
-10 6 1 11 -4 10 -10 -2 -7 3 -12 10 -10 6 1 11 -4 10 -10 -2 -7 3 -12 10 -10
6 1 11 -4 10 -10 -2 -7 3 -12 10 -10 6 1 11 -4 10 -10 -2 -7 3 -12 10 -10 6 1
11 -4 10 -10 -2 -7 3 -12 10 -10 6 1 11 -4 10 -10 -2 -7 3 -12 10 -10 6 1 11
-4 10 -10 -2 -7 3 -12 10 -10 6 1 11 -4 10 -10 -2 -7 3 -12 10 -10 6 1 11 -4
10 -10 -2 -7 3 -12 10 -10 6 1 11 -4 10 -10 -2 -7 3 -12 10 -10 6 1 11 -4 10
-10 -2 -7 3 -12 9 -11 7 2 12 -3 10 -10 -1 -6 4 -11 10 -10 7 2 12 -3 10 -10
-1 -6 4 -11 10 -10 7 2 12 -3 10 -10 -1 -6 4 -11 10 -10 7 2 12 -3 10 -10 -1
-6 4 -11 10 -10 7 2 12 -3 10 -10 -1 -6 4 -11 10 -10 7 2 12 -3 10 -10 -1 -6
4 -11 10 -10 7 2 12 -3 10 -10 -1 -6 4 -11 10 -10 7 2 12 -3 10 -10 -1 -6 4
-11 10 -10 7 2 12 -3 10 -10 -1 -6 4 -11 10 -10 7 2 12 -3 10 -10 -1 -6 4 -11
10 -10 7 2 12 -3 10 -10 -1 -6 4 -11 10 -10 7 2 12 -3 10 -10 -1 -6 4 -11 10
-10 7 2 12 -3 10 -10 -1 -6 4 -11 10 -10 7 2 12 -3 10 -10 -1 -6 4 -11 10 -10
7 2 12 -3 10 -10 -1 -6 4 -11 10 -10 7 2 12 -3 10 -10 -1 -6 4 -11 10 -10 7 2
12 -3 10 -10 -1 -6 4 -11 10 -10 7 2 12 -3 10 -10 -1 -6 4 -11 10 -10 7 2 12
-3 10 -10 -1 -6 4 -11 10 -10 7 2 12 -3 10 -10 -1 -6 4 -11 10 -10 7 2 12 -3
10 -10 -1 -6 4 -11 10 -10 7 2 12 -3 10 -10 -1 -6 4 -11 10 -10 7 2 12 -3 10
-10 -1 -6 4 -11 10 -10 7 2 12 -3 10 -10 -1 -6 4 -11 10 -10 7 2 12 -3 10 -10
-1 -6 4 -11 10 -10 7 2 12 -3 10 -10 -1 -6 4 -11 10 -10 7 2 12 -3 10 -10 -1
-6 4 -11 10 -10 7 2 12 -3 10 -10 -1 -6 4 -11 10 -10 7 2 12 -3 10 -10 -1 -6
4 -11 10 -10 7 2 12 -3 10 -10 -1 -6 4 -11 10 -10 7 2 12 -3 10 -10 -1 -6 4
-11 10 -10 7 2 12 -3 10 -10 -1 -6 4 -11 10 -10 7 2 12 -3 10 -10 -1 -6 4 -11
10 -10 7 2 12 -3 10 -10 -1 -6 4 -11 10 -10 7 2 12 -3 10 -10 -1 -6 4 -11 10
-10 7 2 12 -3 10 -10 -1 -6 4 -11 10 -10 7 2 12 -3 10 -10 -1 -6 4 -11 10 -10
7 2 12 -3 10 -10 -1 -6 4 -11 10 -10 7 2 12 -3 10 -10 -1 -6 4 -11 10 -10 7 2
12 -3 10 -10 -1 -6 4 -11 10 -10 7 2 12 -3 10 -10 -1 -6 4 -11 10 -10 7 2 12
-3 10 -10 -1 -6 4 -11 10 -10 7 2 12 -3 10 -10 -1 -6 4 -11 10 -10 7 2 12 -3
10 -10 -1 -6 4 -11 10 -10 7 2 12 -3 10 -10 -1 -6 4 -11 10 -10 7 2 12 -3 10
-10 -1 -6 4 -11 10 -10 7 2 12 -3 10 -10 -1 -6 4 -11 10 -10 7 2 12 -3 10 -10
-1 -6 4 -11 10 -10 7 2 12 -3 10 -10 -1 -6 4 -11 10 -10 7 2 12 -3 10 -10 -1
-6 4 -11 10 -10 7 2 12 -3 10 -10 -1 -6 4 -11 10 -10 7 2 12 -3 10 -10 -1 -6
4 -11 10 -10 7 2 12 -3 10 -10 -1 -6 4 -11 10 -10 7 2 12 -3 10 -10 -1 -6 4
-11 10 -10 7 2 12 -3 10 -10 -1 -6 4 -11 10 -10 7 2 12 -3 10 -10 -1 -6 4 -11
10 -10 7 2 12 -3 10 -10 -1 -6 4 -11 10 -10 7 2 12 -3 10 -10 -1 -6 4 -11 10
-10 7 2 12 -3 10 -10 -1 -6 4 -11 10 -10 7 2 12 -3 10 -10 -1 -6 4 -11 10 -10
7 2 12 -3 10 -10 -1 -6 4 -11 10 -10 7 2 12 -3 10 -10 -1 -6 4 -11 10 -10 7 2
12 -3 10 -10 -1 -6 4 -11 10 -10 7 2 12 -3 10 -10 -1 -6 4 -11 10 -10 7 2 12
-3 10 -10 -1 -6 4 -11 10 -10 7 2 12 -3 10 -10 -1 -6 4 -11 10 -10 7 2 12 -3
10 -10 -1 -6 4 -11 10 -10 7 2 12 -3 10 -10 -1 -6 4 -11 10 -10 7 2 12 -3 10
-10 -1 -6 4 -11 10 -10 7 2 12 -3 10 -10 -1 -6 4 -11 10 -10 7 2 12 -3 10 -10
-1 -6 4 -11 10 -10 7 2 12 -3 10 -10 -1 -6 4 -11 10 -10 7 2 12 -3 10 -10 -1
-6 4 -11 10 -10 7 2 12 -3 10 -10 -1 -6 4 -11 10 -10 7 2 12 -3 10 -10 -1 -6
4 -11 10 -10 7 2 12 -3 10 -10 -1 -6 4 -11 10 -10 7 2 12 -3 10 -10 -1 -6 4
-11 10 -10 7 2 12 -3 10 -10 -1 -6 4 -11 10 -10 7 2 12 -3 10 -10 -1 -6 4 -11
10 -10 7 2 12 -3 10 -10 -1 -6 4 -11 10 -10 7 2 12 -3 10 -10 -1 -6 4 -11 10
-10 7 2 12 -3 10 -10 -1 -6 4 -11 10 -10 7 2 12 -3 10 -10 -1 -6 4 -11 10 -10
7 2 12 -3 10 -10 -1 -6 4 -11 10 -10 7 2 12 -3 10 -10 -1 -6 4 -11 10 -10 7 2
12 -3 10 -10 -1 -6 4 -11 10 -10 7 2 12 -3 10 -10 -1 -6 4 -11 10 -10 7 2 12
-3 10 -10 -1 -6 4 -11 10 -10 7 2 12 -3 10 -10 -1 -6 4 -11 10 -10 7 2 12 -3
10 -10 -1 -6 4 -11 10 -10 7 2 12 -3 10 -10 -1 -6 4 -11 10 -10 7 2 12 -3 10
-10 -1 -6 4 -11 10 -10 7 2 12 -3 10 -10 -1 -9 91 -14 418 -20 576 -11 1047
-4 1145 17 419 89 742 376 870 772 57 180 55 102 55 1769 0 1440 -1 1545 -18
1623 -108 502 -495 860 -997 922 -105 13 -2993 12 -3095 -1z m1322 -640 c13
-7 32 -34 43 -60 41 -97 83 -444 84 -704 1 -166 -1 -184 -21 -228 -16 -35 -31
-51 -57 -62 -92 -39 -230 -24 -359 39 -139 68 -229 161 -263 271 -39 130 -23
341 37 463 53 108 179 216 326 278 47 20 71 24 123 21 36 -2 75 -10 87 -18z
m740 -17 c137 -68 244 -165 292 -265 59 -121 75 -333 37 -461 -67 -222 -417
-397 -622 -311 -26 11 -41 27 -57 62 -20 44 -22 62 -21 228 1 271 42 604 85
706 18 42 34 56 79 73 40 15 146 -2 207 -32z m-1401 -964 c102 -104 186 -225
210 -302 22 -74 29 -185 14 -232 -20 -61 -78 -142 -161 -224 -91 -89 -172
-141 -234 -148 -96 -10 -251 104 -290 215 -47 136 -26 302 61 483 98 202 187
300 273 300 32 0 46 -11 127 -92z m2020 67 c23 -14 63 -53 90 -87 53 -71 156
-279 173 -350 32 -134 23 -266 -24 -358 -50 -98 -186 -187 -272 -177 -116 13
-348 231 -393 371 -15 47 -8 158 14 232 24 77 108 198 210 302 104 105 125
112 202 67z m-933 -610 c285 -50 550 -218 722 -459 60 -85 139 -252 164 -351
80 -305 33 -617 -131 -883 -62 -101 -223 -269 -316 -331 -205 -137 -479 -214
-702 -196 -296 23 -537 138 -743 354 -188 198 -291 435 -304 707 -21 430 200
826 582 1039 84 47 237 102 334 119 103 19 289 19 394 1z"/>
<path d="M2380 2691 c-158 -34 -291 -104 -407 -215 -187 -177 -273 -376 -273
-631 0 -255 86 -454 272 -631 173 -165 389 -243 633 -231 384 20 696 276 796
652 30 113 30 307 0 420 -70 263 -259 483 -504 587 -154 66 -350 84 -517 49z
m390 -161 c214 -72 382 -229 460 -432 134 -347 -25 -740 -365 -903 -299 -144
-672 -55 -870 207 -177 234 -202 522 -67 783 26 49 63 97 127 161 76 76 105
98 185 138 127 62 195 77 345 72 89 -3 137 -10 185 -26z"/>
<path d="M2410 2414 c-210 -55 -380 -235 -425 -449 -19 -89 -19 -152 0 -240
47 -222 229 -408 446 -455 78 -17 249 -9 320 16 274 96 438 375 389 661 -36
219 -216 412 -435 468 -74 19 -222 18 -295 -1z m178 -156 c16 -16 15 -53 0
-65 -7 -6 -38 -13 -69 -16 -152 -15 -270 -136 -294 -302 -4 -28 -12 -56 -17
-62 -15 -19 -42 -16 -62 6 -15 16 -15 27 -7 81 21 127 98 245 202 307 87 52
219 79 247 51z"/>
<path d="M1385 1230 c665 -665 1212 -1210 1215 -1210 3 0 -540 544 -1205 1210
-665 666 -1212 1210 -1215 1210 -3 0 540 -544 1205 -1210z"/>
</g>
</svg>
